<svg version="1.1" xmlns="http://www.w3.org/2000/svg" xmlns:xlink="http://www.w3.org/1999/xlink" viewBox="0 0 171 171"><g fill="none" fill-rule="nonzero" stroke="none" stroke-width="1" stroke-linecap="butt" stroke-linejoin="miter" stroke-miterlimit="10" stroke-dasharray="" stroke-dashoffset="0" font-family="none" font-weight="none" font-size="none" text-anchor="none" style="mix-blend-mode: normal"><path d="M0,171.9938v-171.9938h171.9938v171.9938z" fill="none"></path><g fill="#ffffff"><path d="M85.5,14.25c-39.35137,0 -71.25,31.89863 -71.25,71.25c0,35.71762 26.31262,65.21513 60.59813,70.3665v-51.48525h-17.62725v-18.73163h17.62725v-12.46162c0,-20.634 10.05337,-29.68987 27.20325,-29.68987c8.21513,0 12.55425,0.60563 14.61338,0.8835v16.34475h-11.69925c-7.28175,0 -9.82537,6.90413 -9.82537,14.68463v10.23862h21.33937l-2.89275,18.73163h-18.4395v51.63487c34.77712,-4.70962 61.60275,-34.44937 61.60275,-70.51612c0,-39.35137 -31.89862,-71.25 -71.25,-71.25z"></path></g></g></svg>