<svg version="1.1" xmlns="http://www.w3.org/2000/svg" xmlns:xlink="http://www.w3.org/1999/xlink" viewBox="0 0 171 171"><g fill="none" fill-rule="nonzero" stroke="none" stroke-width="1" stroke-linecap="butt" stroke-linejoin="miter" stroke-miterlimit="10" stroke-dasharray="" stroke-dashoffset="0" font-family="none" font-weight="none" font-size="none" text-anchor="none" style="mix-blend-mode: normal"><path d="M0,171.9938v-171.9938h171.9938v171.9938z" fill="none"></path><g fill="#ffffff"><path d="M57,21.375c-19.67213,0 -35.625,15.95287 -35.625,35.625v57c0,19.67212 15.95287,35.625 35.625,35.625h57c19.67212,0 35.625,-15.95288 35.625,-35.625v-57c0,-19.67213 -15.95288,-35.625 -35.625,-35.625zM128.25,35.625c3.933,0 7.125,3.192 7.125,7.125c0,3.933 -3.192,7.125 -7.125,7.125c-3.933,0 -7.125,-3.192 -7.125,-7.125c0,-3.933 3.192,-7.125 7.125,-7.125zM85.5,49.875c19.67212,0 35.625,15.95288 35.625,35.625c0,19.67212 -15.95288,35.625 -35.625,35.625c-19.67212,0 -35.625,-15.95288 -35.625,-35.625c0,-19.67212 15.95288,-35.625 35.625,-35.625zM85.5,64.125c-11.80509,0 -21.375,9.56991 -21.375,21.375c0,11.80509 9.56991,21.375 21.375,21.375c11.80509,0 21.375,-9.56991 21.375,-21.375c0,-11.80509 -9.56991,-21.375 -21.375,-21.375z"></path></g></g></svg>