<svg version="1.1" xmlns="http://www.w3.org/2000/svg" xmlns:xlink="http://www.w3.org/1999/xlink" viewBox="0 0 171 171"><g fill="none" fill-rule="nonzero" stroke="none" stroke-width="1" stroke-linecap="butt" stroke-linejoin="miter" stroke-miterlimit="10" stroke-dasharray="" stroke-dashoffset="0" font-family="none" font-weight="none" font-size="none" text-anchor="none" style="mix-blend-mode: normal"><path d="M0,171.9938v-171.9938h171.9938v171.9938z" fill="none"></path><g fill="#ffffff"><path d="M135.375,21.375h-99.75c-7.87312,0 -14.25,6.37688 -14.25,14.25v99.75c0,7.87313 6.37688,14.25 14.25,14.25h99.75c7.87313,0 14.25,-6.37687 14.25,-14.25v-99.75c0,-7.87312 -6.37687,-14.25 -14.25,-14.25zM64.125,121.125h-17.97637v-49.875h17.97637zM54.81975,62.10863c-5.49337,0 -9.16275,-3.66225 -9.16275,-8.55c0,-4.88775 3.66225,-8.55 9.76838,-8.55c5.49338,0 9.16275,3.66225 9.16275,8.55c0,4.88775 -3.66225,8.55 -9.76837,8.55zM128.25,121.125h-17.39925v-27.26025c0,-7.53825 -4.63838,-9.27675 -6.37687,-9.27675c-1.7385,0 -7.53825,1.16138 -7.53825,9.27675c0,1.16137 0,27.26025 0,27.26025h-17.97637v-49.875h17.97637v6.96112c2.31562,-4.06125 6.954,-6.96112 15.65362,-6.96112c8.69963,0 15.66075,6.96112 15.66075,22.61475z"></path></g></g></svg>