<svg version="1.1" xmlns="http://www.w3.org/2000/svg" xmlns:xlink="http://www.w3.org/1999/xlink" viewBox="0 0 171 171"><g fill="none" fill-rule="nonzero" stroke="none" stroke-width="1" stroke-linecap="butt" stroke-linejoin="miter" stroke-miterlimit="10" stroke-dasharray="" stroke-dashoffset="0" font-family="none" font-weight="none" font-size="none" text-anchor="none" style="mix-blend-mode: normal"><path d="M0,171.9938v-171.9938h171.9938v171.9938z" fill="none"></path><g fill="#ffffff"><path d="M156.75,28.49288c-5.5575,3.29887 -16.70812,7.79475 -23.26312,9.0915c-0.19237,0.04988 -0.34912,0.114 -0.53437,0.16387c-5.79263,-5.71425 -13.72988,-9.25537 -22.515,-9.25537c-17.70562,0 -32.0625,14.35687 -32.0625,32.0625c0,0.93337 -0.07837,2.6505 0,3.5625c-23.89012,0 -42.07312,-12.5115 -55.11187,-28.5c-1.41787,3.5625 -2.03775,9.19125 -2.03775,14.478c0,9.98212 7.80188,19.78612 19.95,25.86375c-2.23725,0.57712 -4.7025,0.99037 -7.2675,0.99037c-4.13962,0 -8.5215,-1.09013 -12.53287,-4.39612c0,0.12112 0,0.23512 0,0.36337c0,13.95075 14.80575,23.44838 27.97275,26.09175c-2.67187,1.57463 -8.05837,1.73138 -10.6875,1.73138c-1.8525,0 -8.4075,-0.84788 -10.16025,-1.17562c3.66225,11.43563 16.872,17.86238 29.46188,18.09037c-9.84675,7.7235 -16.67963,10.58775 -36.84337,10.58775h-6.8685c12.7395,8.16525 28.96313,14.25712 45.22238,14.25712c52.93875,0 83.02763,-40.34888 83.02763,-78.38212c0,-0.61275 -0.01425,-1.89525 -0.03562,-3.18487c0,-0.12825 0.03562,-0.24938 0.03562,-0.37763c0,-0.19237 -0.057,-0.37763 -0.057,-0.57c-0.02138,-0.969 -0.04275,-1.87387 -0.06413,-2.34413c5.62875,-4.06125 10.50938,-9.12712 14.37113,-14.89838c-5.16563,2.29425 -10.70888,3.83325 -16.53,4.5315c5.94225,-3.5625 14.38538,-12.0555 16.53,-18.7815z"></path></g></g></svg>